<svg width="54" height="42" viewBox="0 0 54 42" fill="none" xmlns="http://www.w3.org/2000/svg">
<g clip-path="url(#clip0_327_93)">
<path d="M44.9135 20.7293C44.9135 22.4222 44.9135 24.115 44.9135 25.8252C44.9307 25.9116 44.9998 25.9288 45.0689 25.9288C45.449 25.9979 46.209 25.9288 46.6409 25.9288C46.6409 24.2014 46.6409 22.4567 46.6409 20.7293C46.0708 20.7293 45.4835 20.7293 44.9135 20.7293Z" fill="#FF4F4F"/>
<path d="M15.5985 13.7849C15.0285 13.7849 14.4411 13.7849 13.8711 13.7849C13.6983 14.044 13.8711 14.3031 13.8711 14.545C13.8711 14.8732 13.8711 15.1841 13.8711 15.5123C14.1129 15.5123 15.4949 15.5641 15.5812 15.4432C15.6331 14.8904 15.6158 14.3204 15.6158 13.7676L15.5985 13.7849Z" fill="#FF4F4F"/>
<path d="M48.3857 36.3108C48.3857 35.8616 48.4548 35.067 48.3857 34.6697C48.3857 34.6006 48.3512 34.5488 48.2821 34.4969H43.2898L43.1861 34.6006V39.6965C43.1861 39.7829 41.6142 39.6965 41.4587 39.6965C41.4587 40.1284 41.3896 40.8885 41.4587 41.2685C41.4587 41.3376 41.4932 41.3894 41.5623 41.4412H43.2034V39.8002L43.307 39.6965H44.9481V36.2935C46.1055 36.2935 47.2629 36.3107 48.4203 36.2935L48.3857 36.3108Z" fill="#FF4F4F"/>
<path d="M8.67146 17.2572C10.3643 17.2572 12.0572 17.2572 13.7674 17.2572C13.8538 17.2399 13.871 17.1708 13.871 17.1017C13.9401 16.739 13.871 15.9443 13.871 15.5297C12.1782 15.5297 10.4853 15.5125 8.7751 15.5297C8.68873 15.547 8.67146 15.6161 8.67146 15.6852C8.60236 16.0653 8.67146 16.8253 8.67146 17.2572Z" fill="#FF4F4F"/>
<path d="M36.3107 10.3992C36.3107 10.7793 36.3107 11.1766 36.3107 11.5739C36.3107 11.6775 36.1725 12.1439 36.4143 12.1439H37.9517C38.1072 12.2303 37.9863 12.2821 37.9863 12.3167V15.4433L38.0899 15.547H39.731V17.188L39.8346 17.2917H41.4757V19.0191H43.1168L43.2204 19.1228V20.6602C43.2204 20.6602 43.3068 20.7466 43.3932 20.7638C43.7732 20.8329 44.5333 20.7638 44.9651 20.7638C44.9651 20.1938 44.9651 19.6065 44.9651 19.0364H43.2377V17.3953L43.134 17.2917H41.5966C41.3202 16.808 41.683 16.0479 41.3893 15.5643H39.8519C39.7483 15.5124 39.7655 15.4261 39.7483 15.3397C39.6619 14.5969 39.7483 13.4568 39.7483 12.6622C39.7483 12.5585 39.8865 12.0921 39.6446 12.0921H38.0727V10.4338C37.5026 10.4338 36.9153 10.4338 36.3452 10.4338L36.3107 10.3992Z" fill="#FF4F4F"/>
<path d="M36.3108 10.3992C36.3108 9.43182 36.4145 8.08442 36.3108 7.16888C36.3108 7.06523 36.3108 6.99614 36.2072 6.94431H34.5661V5.21688H36.2072L36.3108 5.11323V1.84838L36.2072 1.74473H34.5661V0.103665L34.4797 1.90735e-05H31.1112C31.1112 0.570073 31.1112 1.1574 31.1112 1.72746C32.0786 1.72746 33.426 1.62381 34.3416 1.72746C34.4452 1.72746 34.5143 1.72746 34.5661 1.8311V5.02686C34.5661 5.02686 34.4797 5.1305 34.497 5.1996H31.094V6.84067L30.9903 6.94431H27.6218C27.6218 7.51437 27.6218 8.10169 27.6218 8.67175C28.5892 8.67175 29.9366 8.77539 30.8521 8.67175C30.9558 8.67175 31.0249 8.67175 31.0767 8.5681V6.92704H34.4452L34.5488 7.03068V10.2955C34.5488 10.2955 34.6352 10.3819 34.7216 10.3992C35.1016 10.4683 35.8617 10.3992 36.2936 10.3992H36.3108Z" fill="#FF4F4F"/>
<path d="M6.927 17.2571C6.927 17.8272 6.927 18.4145 6.927 18.9846C7.16884 18.9846 8.55079 18.9327 8.63716 19.0537C8.68899 19.6064 8.65444 20.1765 8.67171 20.7293C9.24177 20.7293 9.82909 20.7293 10.3991 20.7293C10.3991 20.2974 10.4682 19.5373 10.3991 19.1573C10.3991 19.0882 10.3646 19.0364 10.2955 18.9846H8.65444C8.65444 18.4145 8.65444 17.8272 8.65444 17.2571C8.08438 17.2571 7.49706 17.2571 6.927 17.2571Z" fill="#FF4F4F"/>
<path d="M24.1842 10.3993C23.3895 10.3647 22.5604 10.3993 21.7485 10.3993C21.4203 10.3993 21.0921 10.2957 20.712 10.3993V12.0576H15.6852C15.4261 12.0576 15.5815 12.6277 15.5815 12.7486C15.5815 13.0941 15.5815 13.4396 15.5815 13.7851C17.2917 13.7851 19.0019 13.7851 20.712 13.7851V12.1267H24.0805C24.0805 12.1267 24.1669 12.0404 24.1842 11.954C24.2533 11.574 24.1842 10.8139 24.1842 10.382V10.3993Z" fill="#FF4F4F"/>
<path d="M1.72749 18.9846C1.72749 19.4164 1.65839 20.1765 1.72749 20.5565C1.72749 20.6256 1.76204 20.6774 1.83113 20.7293H5.09599L5.19963 20.8329V22.474C6.35702 22.474 7.5144 22.474 8.67178 22.474C8.67178 21.9039 8.67178 21.3166 8.67178 20.7465C8.42994 20.7465 7.04799 20.7984 6.96162 20.6774C6.9098 20.1247 6.94434 19.5546 6.92707 19.0018C5.19963 19.0018 3.45492 19.0018 1.72749 19.0018V18.9846Z" fill="#FF4F4F"/>
<path d="M50.1126 29.3837C50.1126 30.3511 50.0089 31.6985 50.1126 32.614C50.1126 32.7177 50.1126 32.7868 50.2162 32.8386H51.8573V36.2417C50.8208 36.2417 49.7844 36.2244 48.7479 36.2417C48.6097 36.2417 48.4888 36.3108 48.3851 36.3108C48.3851 36.8635 48.3851 37.4163 48.3851 37.9691H53.5847V32.8386H51.9436L51.84 32.735V29.3665C51.27 29.3665 50.6826 29.3665 50.1126 29.3665V29.3837Z" fill="#FF4F4F"/>
<path d="M31.1278 1.72743C29.9704 1.72743 28.813 1.72743 27.6556 1.72743C27.6556 2.29748 27.6556 2.88481 27.6556 3.45486C28.7957 3.45486 29.9186 3.48941 31.0587 3.42031C31.1796 3.33394 31.1278 1.96927 31.1278 1.71015V1.72743Z" fill="#FF4F4F"/>
<path d="M10.3986 20.7292C10.3986 21.2993 10.3986 21.8866 10.3986 22.4566C12.1087 22.4566 13.8189 22.4566 15.529 22.4566C15.6672 23.044 15.529 23.5967 15.529 24.1841C13.8189 24.1841 12.1087 24.1841 10.3986 24.1841C10.3986 24.7541 10.3986 25.3415 10.3986 25.9115H15.529C15.5981 26.3434 15.6154 26.7752 15.5981 27.2071C15.5981 27.2935 15.4599 27.6389 15.6327 27.6389H17.2738V29.28L17.3774 29.3837H20.7459C20.7459 28.8136 20.7459 28.2263 20.7459 27.6562C20.314 27.6562 19.7094 27.708 19.3121 27.6562C19.1912 27.6562 19.1048 27.6389 19.053 27.518L19.0185 24.1841H17.3601V22.543L17.2565 22.4394H15.6154V20.7983C15.5636 20.6947 15.4772 20.7119 15.3908 20.6947C13.9916 20.5219 11.9014 20.6947 10.4158 20.6947L10.3986 20.7292ZM15.5981 24.1841H17.2565V25.9115H15.5981V24.1841Z" fill="#FF4F4F"/>
<path d="M27.6562 8.65449C27.3798 8.65449 27.1034 8.65449 26.8271 8.65449C25.9461 8.65449 25.0651 8.65449 24.1841 8.65449C24.1841 9.22455 24.1841 9.81188 24.1841 10.3819L27.5871 10.3474C27.7081 10.261 27.6562 8.89633 27.6562 8.63722V8.65449Z" fill="#FF4F4F"/>
<path d="M31.1278 27.6564C31.1278 28.2265 31.1278 28.8138 31.1278 29.3838C31.5596 29.3838 32.3197 29.3147 32.6997 29.3838C32.7688 29.3838 32.8206 29.4184 32.8725 29.4875V31.0249C32.8725 31.0249 32.7861 31.1113 32.6997 31.1286C32.3197 31.1977 31.5596 31.1286 31.1278 31.1286C31.1278 31.5604 31.0587 32.3205 31.1278 32.7005C31.1278 32.7696 31.1623 32.8214 31.2314 32.8733H32.7688C33.0279 33.1151 32.7343 34.4452 32.9243 34.5834C33.4598 34.7043 34.1162 34.4798 34.5999 34.7043V36.2418L34.7035 36.3454H36.241L36.3446 36.2418V34.6007H39.7477V39.7312H41.4751C41.4405 36.2936 41.4924 32.8387 41.4751 29.4011H36.3446V34.5316H34.6172V27.7601C34.5654 27.6564 34.479 27.6737 34.3926 27.6564C33.4771 27.5528 32.1297 27.6564 31.1623 27.6564H31.1278ZM38.0548 31.1113H39.7131V32.7696C39.1949 32.8733 38.573 32.8733 38.0548 32.7696V31.1113Z" fill="#FF4F4F"/>
<path d="M24.1841 5.19974C23.2167 5.19974 21.8693 5.0961 20.9538 5.19974C20.8502 5.19974 20.7811 5.19974 20.7292 5.30339V6.94445C19.71 7.03083 18.4836 6.82353 17.4989 6.94445C17.3953 6.94445 17.3262 6.94445 17.2744 7.0481V8.58552L17.1707 8.68917H13.9059C13.7331 8.68917 13.8713 9.08648 13.8713 9.19012C13.8713 9.39741 13.9059 10.313 13.8022 10.3993L10.3992 10.4684V12.1095H7.03067L6.92702 12.2131V13.8542H1.83108L1.72744 13.9578V15.5989H0V19.0711C0.570054 19.0711 1.15738 19.0711 1.72744 19.0711C1.72744 18.121 1.62379 16.739 1.72744 15.8408C1.72744 15.7371 1.72744 15.668 1.83108 15.6162H5.09594L5.19958 15.7198V17.3609C5.76964 17.3609 6.35697 17.3609 6.92702 17.3609C6.92702 16.3935 6.82337 15.0461 6.92702 14.1306C6.92702 14.0269 6.92702 13.9578 7.03067 13.906H10.3992V12.2477L13.8713 12.1786V10.5202H17.1707C17.1707 10.5202 17.3435 10.3648 17.3435 10.3475V8.77554C18.3454 8.68916 19.5373 8.89646 20.5047 8.77554C20.6083 8.77554 20.6774 8.77554 20.7292 8.67189V7.13447L20.8329 7.03083H24.0977C24.0977 7.03083 24.1841 6.94445 24.2014 6.85808C24.2705 6.47805 24.2014 5.71797 24.2014 5.28612L24.1841 5.19974Z" fill="#FF4F4F"/>
<path d="M8.6709 22.4567C8.6709 23.0267 8.6709 23.6141 8.6709 24.1841C9.24095 24.1841 9.82828 24.1841 10.3983 24.1841C10.3983 23.6141 10.3983 23.0267 10.3983 22.4567C9.82828 22.4567 9.24095 22.4567 8.6709 22.4567Z" fill="#FF4F4F"/>
<path d="M48.3858 27.6563C48.3858 27.8982 48.334 29.2801 48.4549 29.3665C49.0077 29.4183 49.5777 29.401 50.1305 29.401C50.1305 28.831 50.1305 28.2437 50.1305 27.6736C49.5605 27.6736 48.9731 27.6736 48.4031 27.6736L48.3858 27.6563Z" fill="#FF4F4F"/>
<path d="M22.457 25.9288C24.1844 25.9288 25.9291 25.9288 27.6566 25.9288C27.6566 26.4989 27.6566 27.0862 27.6566 27.6563C28.8139 27.6563 29.9713 27.6563 31.1287 27.6563C31.1287 27.0862 31.1287 26.4989 31.1287 25.9288H27.7602L27.6566 25.8252V24.1841H22.5606C22.4915 24.2187 22.4743 24.2705 22.457 24.3568C22.3879 24.7369 22.457 25.497 22.457 25.9288Z" fill="#FF4F4F"/>
<path d="M20.7294 27.6561C21.2995 27.6561 21.8868 27.6561 22.4569 27.6561V29.2971L22.5605 29.4008H27.6564V31.0418C27.7083 31.1455 27.7946 31.1282 27.881 31.1455C28.7793 31.2491 30.1612 31.1455 31.1113 31.1455C31.1113 30.5754 31.1113 29.9881 31.1113 29.418L27.7083 29.3835C27.5873 29.2971 27.6392 27.9325 27.6392 27.6733H22.5432C22.4569 27.6388 22.4396 27.587 22.4396 27.5006C22.3705 27.1378 22.4396 26.3605 22.4396 25.9286C21.8868 25.9286 21.3168 25.8941 20.764 25.9632C20.6431 26.0495 20.6949 27.4142 20.6949 27.6733L20.7294 27.6561Z" fill="#FF4F4F"/>
<path d="M46.6397 25.9288C46.6397 26.1707 46.5879 27.5526 46.7088 27.639C47.2616 27.6908 47.8316 27.6735 48.3844 27.6735C48.3844 27.1035 48.3844 26.5161 48.3844 25.9461C47.8144 25.9461 47.227 25.9461 46.657 25.9461L46.6397 25.9288Z" fill="#FF4F4F"/>
<path d="M27.6562 3.47214C26.4988 3.47214 25.3415 3.47214 24.1841 3.47214C24.1841 4.04219 24.1841 4.62952 24.1841 5.19957C25.3242 5.19957 26.447 5.23412 27.5871 5.16503C27.7081 5.07865 27.6562 3.71398 27.6562 3.45486V3.47214Z" fill="#FF4F4F"/>
<path d="M32.855 17.2571V20.7293H34.4788L34.5824 20.6256V19.0882L34.6861 18.9846H36.3099V17.3608L36.2235 17.2571H32.855Z" fill="#FF4F4F"/>
<path d="M20.73 17.257C19.6071 17.257 18.5016 17.257 17.3787 17.257C17.3269 17.257 17.2578 17.4125 17.2578 17.4298V18.8981L17.3615 19.0018H20.73C20.73 18.4317 20.73 17.8444 20.73 17.2743C21.8873 17.2743 23.0447 17.2743 24.2021 17.2743V15.6333L24.0985 15.5296H20.8336C20.8336 15.5296 20.7472 15.616 20.73 15.7024C20.6609 16.0824 20.73 16.8425 20.73 17.2743V17.257Z" fill="#FF4F4F"/>
<path d="M43.1864 24.1841V22.4567H39.8179L39.7142 22.5603V24.0805L39.8179 24.1841H43.1864Z" fill="#FF4F4F"/>
<path d="M44.9135 29.3838V31.0248L45.0171 31.1112H46.6409V32.7523L46.7445 32.8559H48.282L48.3856 32.7523V31.1112H46.7445L46.6409 31.0248V29.3838H44.9135Z" fill="#FF4F4F"/>
<path d="M34.5826 24.1841V25.9288H36.2237L36.3101 25.8252V24.2878L36.2237 24.1841H34.5826Z" fill="#FF4F4F"/>
<path d="M25.9288 22.4567V20.7293H24.2877L24.1841 20.8156V22.3531L24.2877 22.4567H25.9288Z" fill="#FF4F4F"/>
<path d="M31.1284 13.7849H32.8558V12.1266C32.7867 12.1439 32.7176 12.0575 32.6831 12.0575H31.2147L31.1111 12.1611V13.8022L31.1284 13.7849Z" fill="#FF4F4F"/>
</g>
<defs>
<clipPath id="clip0_327_93">
<rect width="53.5851" height="41.4412" fill="white"/>
</clipPath>
</defs>
</svg>
