<svg width="56" height="43" viewBox="0 0 56 43" fill="none" xmlns="http://www.w3.org/2000/svg">
<g clip-path="url(#clip0_327_126)">
<path d="M8.98617 21.483C8.98617 23.2374 8.98617 24.9918 8.98617 26.7642C8.96827 26.8537 8.89666 26.8716 8.82505 26.8716C8.4312 26.9432 7.64349 26.8716 7.19592 26.8716C7.19592 25.0814 7.19592 23.2732 7.19592 21.483C7.78671 21.483 8.39539 21.483 8.98617 21.483Z" fill="#FF4F4F"/>
<path d="M39.3674 14.2861C39.9582 14.2861 40.5669 14.2861 41.1577 14.2861C41.3367 14.5546 41.1577 14.8232 41.1577 15.0738C41.1577 15.4139 41.1577 15.7362 41.1577 16.0763C40.9071 16.0763 39.4749 16.13 39.3853 16.0047C39.3316 15.4318 39.3495 14.8411 39.3495 14.2682L39.3674 14.2861Z" fill="#FF4F4F"/>
<path d="M5.38847 37.631C5.38847 37.1656 5.31686 36.342 5.38847 35.9303C5.38847 35.8587 5.42427 35.805 5.49588 35.7513H10.6697L10.7771 35.8587V41.1399C10.7771 41.2294 12.4063 41.1399 12.5674 41.1399C12.5674 41.5875 12.639 42.3752 12.5674 42.7691C12.5674 42.8407 12.5316 42.8944 12.46 42.9481H10.7592V41.2473L10.6518 41.1399H8.95107V37.6131C7.7516 37.6131 6.55213 37.631 5.35266 37.6131L5.38847 37.631Z" fill="#FF4F4F"/>
<path d="M46.5471 17.8847C44.7926 17.8847 43.0382 17.8847 41.2658 17.8847C41.1763 17.8668 41.1584 17.7952 41.1584 17.7236C41.0868 17.3476 41.1584 16.5241 41.1584 16.0944C42.9129 16.0944 44.6673 16.0765 46.4397 16.0944C46.5292 16.1123 46.5471 16.1839 46.5471 16.2556C46.6187 16.6494 46.5471 17.4371 46.5471 17.8847Z" fill="#FF4F4F"/>
<path d="M17.8854 10.7773C17.8854 11.1711 17.8854 11.5829 17.8854 11.9946C17.8854 12.1021 18.0286 12.5854 17.778 12.5854H16.1847C16.0236 12.6749 16.1489 12.7287 16.1489 12.7645V16.0048L16.0415 16.1122H14.3407V17.813L14.2333 17.9204H12.5326V19.7106H10.8318L10.7244 19.8181V21.4114C10.7244 21.4114 10.6349 21.5009 10.5454 21.5188C10.1515 21.5904 9.36382 21.5188 8.91626 21.5188C8.91626 20.928 8.91626 20.3193 8.91626 19.7285H10.7065V18.0278L10.8139 17.9204H12.4073C12.6937 17.4191 12.3177 16.6314 12.6221 16.1301H14.2154C14.3228 16.0764 14.3049 15.9869 14.3228 15.8974C14.4123 15.1276 14.3228 13.946 14.3228 13.1225C14.3228 13.0151 14.1796 12.5317 14.4302 12.5317H16.0594V10.8131C16.6501 10.8131 17.2588 10.8131 17.8496 10.8131L17.8854 10.7773Z" fill="#FF4F4F"/>
<path d="M17.8836 10.7773C17.8836 9.77473 17.7761 8.37834 17.8836 7.4295C17.8836 7.32209 17.8836 7.25048 17.991 7.19677H19.6917V5.40652H17.991L17.8836 5.2991V1.91553L17.991 1.80811H19.6917V0.107373L19.7812 -4.19617e-05H23.2722C23.2722 0.590741 23.2722 1.19943 23.2722 1.79021C22.2697 1.79021 20.8733 1.68279 19.9244 1.79021C19.817 1.79021 19.7454 1.79021 19.6917 1.89763V5.20959C19.6917 5.20959 19.7812 5.31701 19.7633 5.38862H23.2901V7.08936L23.3975 7.19677H26.8885C26.8885 7.78755 26.8885 8.39624 26.8885 8.98702C25.886 8.98702 24.4896 9.09444 23.5408 8.98702C23.4333 8.98702 23.3617 8.98702 23.308 8.87961V7.17887H19.817L19.7096 7.28628V10.6699C19.7096 10.6699 19.6201 10.7594 19.5306 10.7773C19.1367 10.8489 18.349 10.7773 17.9015 10.7773H17.8836Z" fill="#FF4F4F"/>
<path d="M48.3373 17.8845C48.3373 18.4753 48.3373 19.084 48.3373 19.6748C48.0866 19.6748 46.6544 19.6211 46.5649 19.7464C46.5112 20.3193 46.547 20.9101 46.5291 21.4829C45.9383 21.4829 45.3296 21.4829 44.7389 21.4829C44.7389 21.0354 44.6672 20.2477 44.7389 19.8538C44.7389 19.7822 44.7747 19.7285 44.8463 19.6748H46.547C46.547 19.084 46.547 18.4753 46.547 17.8845C47.1378 17.8845 47.7465 17.8845 48.3373 17.8845Z" fill="#FF4F4F"/>
<path d="M30.4515 10.7774C31.275 10.7416 32.1343 10.7774 32.9758 10.7774C33.3159 10.7774 33.6561 10.67 34.0499 10.7774V12.496H39.2595C39.5281 12.496 39.367 13.0868 39.367 13.2121C39.367 13.5702 39.367 13.9282 39.367 14.2863C37.5946 14.2863 35.8223 14.2863 34.0499 14.2863V12.5676H30.5589C30.5589 12.5676 30.4694 12.4781 30.4515 12.3886C30.3799 11.9947 30.4515 11.207 30.4515 10.7595V10.7774Z" fill="#FF4F4F"/>
<path d="M53.7257 19.6748C53.7257 20.1223 53.7974 20.91 53.7257 21.3039C53.7257 21.3755 53.6899 21.4292 53.6183 21.4829H50.2348L50.1273 21.5903V23.2911C48.9279 23.2911 47.7284 23.2911 46.5289 23.2911C46.5289 22.7003 46.5289 22.0916 46.5289 21.5008C46.7796 21.5008 48.2118 21.5545 48.3013 21.4292C48.355 20.8563 48.3192 20.2656 48.3371 19.6927C50.1273 19.6927 51.9355 19.6927 53.7257 19.6927V19.6748Z" fill="#FF4F4F"/>
<path d="M3.59804 30.4522C3.59804 31.4547 3.70546 32.8511 3.59804 33.7999C3.59804 33.9073 3.59804 33.979 3.49063 34.0327H1.78989V37.5595C2.86404 37.5595 3.93819 37.5416 5.01234 37.5595C5.15556 37.5595 5.28088 37.6311 5.38829 37.6311C5.38829 38.2039 5.38829 38.7768 5.38829 39.3497H-0.000366211V34.0327H1.70037L1.80779 33.9252V30.4343C2.39857 30.4343 3.00726 30.4343 3.59804 30.4343V30.4522Z" fill="#FF4F4F"/>
<path d="M23.2724 1.79017C24.4719 1.79017 25.6714 1.79017 26.8708 1.79017C26.8708 2.38095 26.8708 2.98963 26.8708 3.58042C25.6893 3.58042 24.5256 3.61622 23.344 3.54461C23.2187 3.4551 23.2724 2.0408 23.2724 1.77226V1.79017Z" fill="#FF4F4F"/>
<path d="M44.7555 21.483C44.7555 22.0738 44.7555 22.6825 44.7555 23.2732C42.9831 23.2732 41.2108 23.2732 39.4384 23.2732C39.2952 23.8819 39.4384 24.4548 39.4384 25.0635C41.2108 25.0635 42.9831 25.0635 44.7555 25.0635C44.7555 25.6543 44.7555 26.263 44.7555 26.8537H39.4384C39.3668 27.3013 39.3489 27.7489 39.3668 28.1964C39.3668 28.2859 39.51 28.644 39.331 28.644H37.6303V30.3447L37.5228 30.4521H34.0319C34.0319 29.8614 34.0319 29.2527 34.0319 28.6619C34.4794 28.6619 35.106 28.7156 35.5178 28.6619C35.6431 28.6619 35.7326 28.644 35.7863 28.5187L35.8221 25.0635H37.5408V23.3627L37.6482 23.2553H39.3489V21.5546C39.4026 21.4472 39.4921 21.4651 39.5816 21.4472C41.0317 21.2682 43.1979 21.4472 44.7376 21.4472L44.7555 21.483ZM39.3668 25.0635H37.6482V26.8537H39.3668V25.0635Z" fill="#FF4F4F"/>
<path d="M26.872 8.96916C27.1585 8.96916 27.4449 8.96916 27.7314 8.96916C28.6444 8.96916 29.5574 8.96916 30.4704 8.96916C30.4704 9.55994 30.4704 10.1686 30.4704 10.7594L26.9436 10.7236C26.8183 10.6341 26.872 9.21979 26.872 8.95126V8.96916Z" fill="#FF4F4F"/>
<path d="M23.2727 28.6619C23.2727 29.2527 23.2727 29.8614 23.2727 30.4522C22.8251 30.4522 22.0374 30.3806 21.6435 30.4522C21.5719 30.4522 21.5182 30.488 21.4645 30.5596V32.1529C21.4645 32.1529 21.554 32.2425 21.6435 32.2604C22.0374 32.332 22.8251 32.2604 23.2727 32.2604C23.2727 32.7079 23.3443 33.4956 23.2727 33.8895C23.2727 33.9611 23.2369 34.0148 23.1652 34.0685H21.5719C21.3034 34.3191 21.6077 35.6976 21.4108 35.8409C20.8558 35.9662 20.1755 35.7334 19.6743 35.9662V37.5595L19.5668 37.6669H17.9735L17.8661 37.5595V35.8588H14.3393V41.1758H12.5491C12.5849 37.6132 12.5312 34.0327 12.5491 30.4701H17.8661V35.7872H19.6564V28.7694C19.7101 28.6619 19.7996 28.6799 19.8891 28.6619C20.8379 28.5545 22.2343 28.6619 23.2369 28.6619H23.2727ZM16.0938 32.2425H14.3751V33.9611C14.9122 34.0685 15.5567 34.0685 16.0938 33.9611V32.2425Z" fill="#FF4F4F"/>
<path d="M30.4518 5.38871C31.4544 5.38871 32.8508 5.2813 33.7996 5.38871C33.907 5.38871 33.9786 5.38871 34.0323 5.49613V7.19687C35.0886 7.28638 36.3597 7.07155 37.3801 7.19687C37.4875 7.19687 37.5591 7.19687 37.6128 7.30428V8.89761L37.7203 9.00502H41.1038C41.2829 9.00502 41.1396 9.41678 41.1396 9.5242C41.1396 9.73903 41.1038 10.6879 41.2112 10.7774L44.738 10.849V12.5497H48.229L48.3364 12.6571V14.3579H53.6177L53.7251 14.4653V16.166H55.5154V19.7644C54.9246 19.7644 54.3159 19.7644 53.7251 19.7644C53.7251 18.7798 53.8325 17.3476 53.7251 16.4167C53.7251 16.3093 53.7251 16.2376 53.6177 16.1839H50.2341L50.1267 16.2913V17.9921C49.5359 17.9921 48.9272 17.9921 48.3364 17.9921C48.3364 16.9895 48.4439 15.5932 48.3364 14.6443C48.3364 14.5369 48.3364 14.4653 48.229 14.4116H44.738V12.6929L41.1396 12.6213V10.9027H37.7203C37.7203 10.9027 37.5412 10.7416 37.5412 10.7237V9.09453C36.5029 9.00502 35.2676 9.21985 34.2651 9.09453C34.1576 9.09453 34.086 9.09453 34.0323 8.98712V7.3938L33.9249 7.28638H30.5413C30.5413 7.28638 30.4518 7.19687 30.4339 7.10735C30.3623 6.7135 30.4339 5.92579 30.4339 5.47823L30.4518 5.38871Z" fill="#FF4F4F"/>
<path d="M46.5459 23.2732C46.5459 23.864 46.5459 24.4727 46.5459 25.0634C45.9551 25.0634 45.3464 25.0634 44.7556 25.0634C44.7556 24.4727 44.7556 23.864 44.7556 23.2732C45.3464 23.2732 45.9551 23.2732 46.5459 23.2732Z" fill="#FF4F4F"/>
<path d="M5.38823 28.6619C5.38823 28.9125 5.44194 30.3447 5.31662 30.4342C4.74374 30.4879 4.15296 30.47 3.58008 30.47C3.58008 29.8792 3.58008 29.2705 3.58008 28.6798C4.17086 28.6798 4.77955 28.6798 5.37033 28.6798L5.38823 28.6619Z" fill="#FF4F4F"/>
<path d="M32.2598 26.8717C30.4695 26.8717 28.6614 26.8717 26.8711 26.8717C26.8711 27.4625 26.8711 28.0712 26.8711 28.6619C25.6716 28.6619 24.4722 28.6619 23.2727 28.6619C23.2727 28.0712 23.2727 27.4625 23.2727 26.8717H26.7637L26.8711 26.7643V25.0635H32.1524C32.224 25.0993 32.2419 25.153 32.2598 25.2426C32.3314 25.6364 32.2598 26.4241 32.2598 26.8717Z" fill="#FF4F4F"/>
<path d="M34.0498 28.6617C33.459 28.6617 32.8504 28.6617 32.2596 28.6617V30.3624L32.1522 30.4699H26.8709V32.1706C26.8172 32.278 26.7277 32.2601 26.6382 32.278C25.7072 32.3854 24.275 32.278 23.2904 32.278C23.2904 31.6872 23.2904 31.0785 23.2904 30.4878L26.8172 30.452C26.9425 30.3624 26.8888 28.9481 26.8888 28.6796H32.1701C32.2596 28.6438 32.2775 28.5901 32.2775 28.5006C32.3491 28.1246 32.2775 27.319 32.2775 26.8715C32.8504 26.8715 33.4411 26.8357 34.014 26.9073C34.1393 26.9968 34.0856 28.4111 34.0856 28.6796L34.0498 28.6617Z" fill="#FF4F4F"/>
<path d="M7.17852 26.8716C7.17852 27.1222 7.23222 28.5544 7.10691 28.644C6.53403 28.6977 5.94324 28.6798 5.37036 28.6798C5.37036 28.089 5.37036 27.4803 5.37036 26.8895C5.96114 26.8895 6.56983 26.8895 7.16061 26.8895L7.17852 26.8716Z" fill="#FF4F4F"/>
<path d="M26.872 3.59834C28.0715 3.59834 29.271 3.59834 30.4704 3.59834C30.4704 4.18913 30.4704 4.79781 30.4704 5.38859C29.2889 5.38859 28.1252 5.4244 26.9436 5.35279C26.8183 5.26328 26.872 3.84898 26.872 3.58044V3.59834Z" fill="#FF4F4F"/>
<path d="M21.4828 17.8845V21.4829H19.7821L19.6747 21.3755V19.7822L19.5851 19.6748H17.8844V17.9919L17.9918 17.8845H21.4828Z" fill="#FF4F4F"/>
<path d="M34.0498 17.8845C35.2135 17.8845 36.3592 17.8845 37.5229 17.8845C37.5766 17.8845 37.6482 18.0457 37.6482 18.0636V19.5853L37.5408 19.6927H34.0498C34.0498 19.1019 34.0498 18.4932 34.0498 17.9024C32.8504 17.9024 31.6509 17.9024 30.4514 17.9024V16.2017L30.5588 16.0943H33.9424C33.9424 16.0943 34.0319 16.1838 34.0498 16.2733C34.1214 16.6672 34.0498 17.4549 34.0498 17.9024V17.8845Z" fill="#FF4F4F"/>
<path d="M10.7764 25.0634V23.2732H14.2674L14.3569 23.3806V24.956L14.2674 25.0634H10.7764Z" fill="#FF4F4F"/>
<path d="M8.98635 30.4521V32.1528L8.87893 32.2423H7.17819V33.9431L7.07078 34.0505H5.49535L5.38794 33.9431V32.2423H7.07078L7.17819 32.1528V30.4521H8.98635Z" fill="#FF4F4F"/>
<path d="M19.6747 25.0635V26.8717H17.9918L17.8844 26.7643V25.1709L17.9918 25.0635H19.6747Z" fill="#FF4F4F"/>
<path d="M28.6611 23.2732V21.483H30.344L30.4514 21.5725V23.1658L30.344 23.2732H28.6611Z" fill="#FF4F4F"/>
<path d="M23.2728 14.2861H21.4825V12.5675C21.5542 12.5854 21.6258 12.4959 21.6616 12.4959H23.1833L23.2907 12.6033V14.304L23.2728 14.2861Z" fill="#FF4F4F"/>
</g>
<defs>
<clipPath id="clip0_327_126">
<rect width="55.5336" height="42.9481" fill="white"/>
</clipPath>
</defs>
</svg>
