<svg width="72" height="72" viewBox="0 0 72 72" fill="none" xmlns="http://www.w3.org/2000/svg">
<circle cx="36" cy="36" r="36" fill="black"/>
<path d="M11.47 36.2917V37.3785H8.19598V39.5549H6V33H11.47V34.0868H12.5566V36.2917H11.47ZM10.3549 34.1153H8.19598V36.2746H10.3549V34.1153Z" fill="#FF4F4F"/>
<path d="M14.7097 39.5578V38.451H15.802V34.1153H14.7097V33H19.0931V34.1153H18.0008V38.451H19.0931V39.5578H14.7097Z" fill="#FF4F4F"/>
<path d="M21.2435 39.5578V37.3614H22.3358V36.2746H23.4224V35.1793H24.509V34.1182H21.2464V33H26.7164V35.2049H25.6298V36.2917H24.5375V37.3785H23.4424V38.451H26.7164V39.5578H21.2464H21.2435Z" fill="#FF4F4F"/>
<path d="M28.8667 39.5578V37.3614H29.959V36.2746H31.0456V35.1793H32.1322V34.1182H28.8696V33H34.3395V35.2049H33.253V36.2917H32.1607V37.3785H31.0655V38.451H34.3395V39.5578H28.8696H28.8667Z" fill="#FF4F4F"/>
<path d="M40.8449 39.5578V37.3814H38.686V39.5578H36.49V34.0868H37.5823V33H41.96V34.0868H43.0466V39.5578H40.8449ZM40.8449 34.1153H38.686V36.2746H40.8449V34.1153Z" fill="#FF4F4F"/>
<path d="M45.1997 39.5578V33H47.3957V38.451H50.6697V39.5578H45.1997Z" fill="#FF4F4F"/>
<path d="M56.0884 39.5578V37.3814H53.9295V39.5578H51.7335V34.0868H52.8258V33H57.2035V34.0868H58.2901V39.5578H56.0884ZM56.0884 34.1153H53.9295V36.2746H56.0884V34.1153Z" fill="#FF4F4F"/>
<path d="M65.9134 38.471V39.5578H60.4434V33H65.9134V34.0868H66.9999V35.2078H65.9134V36.2746H66.9999V38.471H65.9134ZM64.7983 34.1153H62.6393V35.1764H64.7983V34.1153ZM64.7983 36.2917H62.6393V38.451H64.7983V36.2917Z" fill="#FF4F4F"/>
</svg>
